<?xml version="1.0" encoding="UTF-8" standalone="no"?>
<!-- Generator: Adobe Illustrator 18.1.1, SVG Export Plug-In . SVG Version: 6.00 Build 0)  -->

<!-- NOTE: XML Headers must be revomed or outcommented when embedding SVG into HTML -->

<!-- basiblau color: #51A1D9 / rgb(81,161,217) -->

<svg
   xmlns:dc="http://purl.org/dc/elements/1.1/"
   xmlns:cc="http://creativecommons.org/ns#"
   xmlns:rdf="http://www.w3.org/1999/02/22-rdf-syntax-ns#"
   xmlns:svg="http://www.w3.org/2000/svg"
   xmlns="http://www.w3.org/2000/svg"
   xmlns:sodipodi="http://sodipodi.sourceforge.net/DTD/sodipodi-0.dtd"
   xmlns:inkscape="http://www.inkscape.org/namespaces/inkscape"
   version="1.1"
   id="Ebene_1"
   x="0px"
   y="0px"
   viewBox="0 0 126 126"
   enable-background="new 0 0 365 126"
   xml:space="preserve"
   inkscape:version="0.91 r13725"
   sodipodi:docname="basimilch_avatar_blue_on_transparent.svg"
   width="126"
   height="126"><metadata
     id="metadata3618"><rdf:RDF><cc:Work
         rdf:about=""><dc:format>image/svg+xml</dc:format><dc:type
           rdf:resource="http://purl.org/dc/dcmitype/StillImage" /><dc:title></dc:title></cc:Work></rdf:RDF></metadata><defs
     id="defs3616" /><sodipodi:namedview
     pagecolor="#ffffff"
     bordercolor="#666666"
     borderopacity="1"
     objecttolerance="10"
     gridtolerance="10"
     guidetolerance="10"
     inkscape:pageopacity="0"
     inkscape:pageshadow="2"
     inkscape:window-width="1255"
     inkscape:window-height="754"
     id="namedview3614"
     showgrid="false"
     fit-margin-top="0"
     fit-margin-left="0"
     fit-margin-right="0"
     fit-margin-bottom="0"
     inkscape:zoom="1.6054795"
     inkscape:cx="16.817406"
     inkscape:cy="63"
     inkscape:window-x="0"
     inkscape:window-y="0"
     inkscape:window-maximized="0"
     inkscape:current-layer="Ebene_1" /><rect
     class="background"
     height="126"
     width="126"
     id="rect3502"
     x="0"
     y="0"
     style="fill:none" /><g
     id="g3733"
     transform="translate(-256.34487,-1.5688312)"><path
       style="fill:none"
       inkscape:connector-curvature="0"
       id="path3504"
       d="m 307.9,85.8 c 0,0.2 0,0.5 0,0.8 0,0.4 0,0.8 -0.1,1.2 0.5,-0.5 1.2,-0.8 1.9,-1 0.4,-0.1 0.4,0.1 0,0.4 -0.2,0.2 -0.5,0.4 -0.7,0.6 0,0 -1.1,0.8 -0.7,0.8 0.5,0.1 1,0 1.5,0 0.8,-0.1 1.8,-0.1 2.3,-0.9 0.3,-0.4 0.5,-0.9 0.7,-1.3 -1.3,-1 -3.3,-0.7 -4.9,-0.6 z" /><path
       style="fill:none"
       inkscape:connector-curvature="0"
       id="path3506"
       d="m 308.2,83.8 c -0.5,0.2 -1,0.4 -1.6,0.5 -1,0.1 -1.4,-1 -2.7,-0.7 -0.6,0.1 -1.4,0.6 -2,0.4 -0.6,-0.2 -1,-0.3 -1.6,-0.5 0.6,1.4 0.8,1.9 0.5,3.6 -0.3,1.5 0.1,2.5 0.9,3.8 0.3,0.4 0.9,1 0.3,1.4 0.2,-0.1 0.4,0 0.5,0.1 0.2,0 0.3,0 0.5,0.1 0.7,0.3 1.2,0.4 2,0.3 0.3,0 0.6,0 0.9,0.2 0.2,-2.4 2,-4.7 1,-7 -0.4,-1.1 0.8,-1.5 1.3,-2.2 z m -6.2,5.6 c -0.5,0.5 -1.1,-0.5 -1.1,-1 0,0 0,0 0,0 0,0 0,0 0,0 -0.1,0 -0.1,-0.6 0.2,-0.5 0.5,0.2 1.7,0.7 0.9,1.5 z m 5,-0.8 c 0,0.1 0,0.1 0,0.2 -0.2,0.4 -0.3,0.7 -0.8,0.8 -0.2,0.1 -0.6,-0.1 -0.4,-0.4 0.2,-0.4 0.4,-0.6 0.7,-0.9 0.2,-0.3 0.5,0 0.5,0.3 z" /><path
       style="fill:none"
       inkscape:connector-curvature="0"
       id="path3508"
       d="m 304.7,93.4 c -0.4,0 -0.9,0.1 -1.3,-0.1 -0.4,-0.2 -0.7,-0.4 -1.2,-0.3 0,0 0,0.1 0,0.1 -1.3,1.7 1,2.4 2.4,2.1 0.3,-0.1 0.8,-0.1 1,-0.4 0.9,-0.6 0,-1.4 -0.9,-1.4 z m -1.3,1.1 c -0.1,0.2 -0.4,0.2 -0.5,0 -0.3,-0.3 -0.2,-0.3 -0.4,-0.7 -0.2,-0.4 0.4,-0.7 0.6,-0.3 0,0 0,0.1 0.1,0.1 0.1,0 0.3,0.1 0.3,0.2 0,0.4 0.1,0.5 -0.1,0.7 z m 2.3,0 c -0.1,0.1 -0.2,0.2 -0.3,0.3 -0.2,0.2 -0.7,-0.1 -0.5,-0.4 0,0 0,-0.1 0,-0.1 0,-0.1 0.1,-0.2 0.2,-0.2 0.1,-0.1 0.1,-0.1 0.2,-0.2 0.3,-0.2 0.7,0.3 0.4,0.6 z" /><path
       style="fill:#51a1d9"
       inkscape:connector-curvature="0"
       id="path3510"
       d="m 303.1,93.7 c 0,0 0,-0.1 0,0 -0.2,-0.5 -0.8,-0.2 -0.6,0.2 0.2,0.4 0.1,0.4 0.4,0.7 0.1,0.2 0.4,0.2 0.5,0 0.2,-0.3 0.1,-0.3 0.1,-0.6 -0.1,-0.2 -0.2,-0.3 -0.4,-0.3 z"
       class="foreground" /><path
       style="fill:#51a1d9"
       inkscape:connector-curvature="0"
       id="path3512"
       d="m 299.4,93.2 c -0.2,1.2 -0.1,0.9 -0.1,2.2 0,0.4 1.1,2 0.9,1.6 -0.3,-1.1 -0.6,-2.3 -0.4,-3.6 0.1,-0.5 -0.3,-0.6 -0.4,-0.2 z"
       class="foreground" /><path
       style="fill:#51a1d9"
       inkscape:connector-curvature="0"
       id="path3514"
       d="m 309.5,105.2 c 0.2,-5.4 2.3,-8.9 1.2,-15.1 -0.1,-0.4 -0.5,-1 -0.5,-0.6 0.5,3.9 -0.8,8.8 -1,12.9 -0.2,3.2 -0.6,4.7 -0.3,8 0.1,0.9 1.6,5.2 1.3,5.6 -1.7,0.2 -1.9,-0.5 -1.9,-1.9 0,-0.5 -0.3,-1.9 -0.4,-2.4 -0.3,-3.3 -1.7,-2.5 -1.2,-7.1 0.2,-1.6 -0.2,-2 -0.8,-3.3 -0.1,-0.2 -0.4,-0.2 -0.6,0 -0.9,1.2 -0.9,1.4 -1.7,0.1 -0.1,-0.1 -0.3,-0.2 -0.5,0 -0.7,0.6 -0.8,0.8 -0.4,1.9 0.9,2.3 -0.4,5.5 -0.2,7.8 0.4,3.9 -0.9,3 -1.3,1.9 -0.2,-0.6 -0.1,-3 -0.1,-3.4 0,-2.9 0.1,-7.4 -1.2,-10 -1.1,-2.3 -2.4,-4.9 -2.1,-7.7 0.2,-1.5 0.3,-2.8 0.3,-4.2 0,-0.4 -0.5,0.2 -0.5,0.6 0.1,2.2 -1.2,4.6 -0.6,6.8 0.6,2.1 2.6,4.3 2.6,6.3 0,3.4 1,6.6 1,10.1 0,1.2 -0.7,2.2 0.2,3.3 0.6,0.7 2,1 2.5,-0.1 0.5,-1.2 -0.3,-4.3 -0.3,-5.3 0,0.3 0.6,-6.2 0.7,-6 0.1,0.3 0.9,0.5 1,0.2 0.2,-0.4 0.5,-0.9 0.6,-0.5 0.4,1.5 0.7,5.5 0.6,5.3 1,2.5 1.7,4.6 1.6,7.5 0,1.3 2,1.5 2.9,1.5 0.1,0 0.3,-0.1 0.3,-0.2 0.3,-1.1 -0.1,-1.9 -0.4,-3 -0.6,-3 -0.9,-5.9 -0.8,-9 z"
       class="foreground" /><path
       style="fill:#51a1d9"
       inkscape:connector-curvature="0"
       id="path3516"
       d="m 313.2,85.6 c -1.4,-1.2 -3.4,-0.6 -5.2,-0.5 0.1,-0.3 0.3,-0.5 0.6,-0.7 0.4,-0.3 0.5,-0.8 0.5,-1.2 0,-0.2 -0.2,-0.5 -0.5,-0.3 -1,0.5 -1.9,1 -3,0.5 -0.4,-0.2 -0.8,-0.4 -1.3,-0.3 -1.3,0.2 -2.2,0.4 -3.5,-0.3 -0.4,-0.2 -0.9,-0.2 -1.4,-0.3 -0.3,0 -0.4,0.2 -0.3,0.5 0.2,0.6 0.5,1.1 0.8,1.6 -1.2,-0.2 -2.5,-0.6 -3.7,-0.8 -0.2,0 -0.6,0.1 -0.6,0.3 0.2,1.8 2.4,3.2 4,3.7 0.2,0.1 0.2,-0.1 0.2,-0.3 0.4,-0.9 -0.4,-1.3 -1.2,-1.4 -0.4,-0.1 -0.4,0.3 0,0.4 0.3,0 0.4,0.2 0.5,0.5 -1.1,-0.5 -2.2,-1.2 -2.6,-2.3 1.1,0.2 2.3,0.4 3.5,0.6 0,0 0.1,0 0.1,0 0.1,0.2 0.1,0.5 0.1,0.7 0,0.9 -0.3,1.9 -0.3,2.8 0,1.6 1.5,2.4 1.7,3.9 0,0.1 0,0.1 0.1,0.2 0,0 0,0 0,0 -1.7,2.2 1.4,3.7 3.4,3.2 1,-0.3 2,-1.4 1.5,-2.5 0,-0.1 -0.1,-0.2 -0.2,-0.3 0.1,0 0.1,-0.1 0.1,-0.2 0.1,-1.5 0.7,-2.5 1.1,-3.9 0.1,0.1 0.2,0 0.3,0 1,0.2 2.2,0.1 3.1,-0.2 1.4,-0.3 1.7,-1.5 2.3,-2.6 0.3,-0.2 0.1,-0.6 -0.1,-0.8 z m -7.5,9.3 c -0.3,0.2 -0.7,0.3 -1,0.4 -1.4,0.3 -3.7,-0.4 -2.4,-2.1 0,0 0,-0.1 0,-0.1 0.4,-0.1 0.8,0.1 1.2,0.3 0.4,0.2 0.8,0.1 1.3,0.1 0.8,-0.1 1.7,0.7 0.9,1.4 z m 1.2,-9 c 1.3,3.2 -0.8,4.7 -1,7 -0.3,-0.1 -0.7,-0.2 -0.9,-0.2 -0.8,0.1 -1.3,-0.1 -2,-0.3 -0.2,-0.1 -0.3,-0.1 -0.5,-0.1 -0.1,-0.2 -0.3,-0.2 -0.5,-0.1 0.5,-0.4 -0.1,-1 -0.3,-1.4 -0.9,-1.3 -1.4,-2 -1.1,-3.5 0.3,-1.8 0.3,-2.5 -0.3,-3.9 0.6,0.2 1,0.3 1.6,0.5 0.6,0.2 1.4,-0.3 2,-0.4 1.2,-0.3 1.6,0.8 2.7,0.7 0.6,-0.1 1.1,-0.2 1.6,-0.5 -0.5,0.8 -1.7,1.2 -1.3,2.2 z m 5.2,1.7 c -0.5,0.7 -1.5,0.8 -2.3,0.9 -0.5,0.1 -1,0.1 -1.5,0 -0.4,0 0.7,-0.8 0.7,-0.8 0.3,-0.1 0.5,-0.4 0.7,-0.6 0.4,-0.3 0.4,-0.5 0,-0.4 -0.7,0.2 -1.4,0.5 -1.9,1 0,-0.4 0.1,-0.8 0.1,-1.2 0,-0.3 0,-0.6 0,-0.8 1.6,-0.1 3.6,-0.4 4.9,0.5 -0.2,0.5 -0.5,1 -0.7,1.4 z"
       class="foreground" /><path
       style="fill:#51a1d9"
       inkscape:connector-curvature="0"
       id="path3518"
       d="m 306.4,88.3 c -0.3,0.3 -0.5,0.5 -0.7,0.9 -0.1,0.3 0.2,0.5 0.5,0.4 0.4,-0.1 0.6,-0.4 0.8,-0.8 0,-0.1 0,-0.1 0,-0.2 -0.1,-0.3 -0.4,-0.6 -0.6,-0.3 z"
       class="foreground" /><path
       style="fill:#51a1d9"
       inkscape:connector-curvature="0"
       id="path3520"
       d="m 301.1,88.1 c -0.3,-0.1 -0.3,0.5 -0.2,0.5 0,0 0,0 0,0 0,0 0,0 0,0 0,0.4 0.6,1.4 1.1,1 0.9,-0.7 -0.3,-1.3 -0.9,-1.5 z"
       class="foreground" /><path
       style="fill:#51a1d9"
       inkscape:connector-curvature="0"
       id="path3522"
       d="m 305.3,94 c -0.1,0.1 -0.1,0.1 -0.2,0.2 -0.1,0 -0.2,0.1 -0.2,0.2 0,0 0,0.1 0,0.1 -0.1,0.3 0.3,0.6 0.5,0.4 0.1,-0.1 0.2,-0.2 0.3,-0.3 0.3,-0.4 -0.1,-0.9 -0.4,-0.6 z"
       class="foreground" /><g
       id="g3524"><g
         id="g3526"><path
           style="fill:#51a1d9"
           inkscape:connector-curvature="0"
           id="path3528"
           d="m 348.2,77.7 c 0,-0.1 1.5,-1.1 3.2,-3.6 0.9,-1.3 2.1,-3.2 0.3,-5.7 -1.5,-2 -2.2,-3.3 -4,-4.5 1.1,0.2 2.6,-0.5 3.4,-0.9 3.6,-1.7 4.5,-9.6 1.7,-12.3 -1.8,-1.7 -3.4,-2.6 -5.8,-3.4 -1.2,-0.4 -3.9,-1 -3.7,-1.8 0.1,-0.8 4.1,-2.5 4.2,-5.8 0.2,-6.1 -11.7,-9.6 -11.6,-10 0.1,-0.4 4.1,-5.7 0,-8 -1.3,-0.7 -8.5,-1.8 -8.7,-3.3 -0.3,-2 -3,-4.4 -4.4,-5.4 -5.1,-3.7 -12.8,1.4 -13,6.7 0,0.6 -11.5,2.3 -9,7.5 1.8,3.8 4.1,2.8 -1,3.6 -3,0.5 -4.6,0.4 -6.5,2.6 -4.2,4.8 4.6,7 -2.5,8.2 -4.2,0.7 -8.1,8.2 -5.3,11.8 1.4,1.8 3.5,3.1 5.5,3 -1.2,0 -4.3,1.2 -5,2.2 -1.2,1.7 -1.5,3 -0.7,4.7 1.8,3.8 1.3,2.4 -0.2,6.5 -6.3,16.9 24.1,3 25.6,9.8 0.2,0.8 1.5,0.6 1.3,-0.2 -0.3,-1.4 -0.4,-2.3 -2.2,-2.5 -3,-0.4 -5.7,-0.3 -8.7,-0.1 -1.5,0.1 -3.1,0.2 -4.6,0.4 -1.4,0.3 -2.6,0.2 -3.6,-0.1 -3.7,0 -6.7,-2.7 -6.7,-6.1 0,-2.3 1.4,-4.3 3.5,-5.3 0,0 0,-0.1 0,-0.1 0,-0.1 0.1,-0.2 0.1,-0.3 0,0 0,0 0,0 -1.7,0 -3,-1.6 -3,-3.5 0,-2 1.4,-3.5 3,-3.5 2.7,0 4.8,-1.5 4.1,-1.8 -0.9,-0.2 -1.6,-0.5 -2.2,-0.9 -3.1,-0.6 -5.4,-3 -5.4,-6 0,-3.4 3,-6.1 6.7,-6.1 1,0 2.4,-0.2 4.3,-0.8 0.5,0 1,-0.7 0.6,-1.1 -9.2,-8.4 1.9,-9.6 8.7,-8.7 0.3,0 0.5,-0.1 0.6,-0.4 -2.4,-0.9 -4.1,-3.1 -4.1,-5.6 0,-1.4 2,-6.1 6.7,-6.1 0.1,0 0.2,0 0.2,0 0.4,-0.3 1.1,-0.8 1.6,-1.3 0,-0.1 0,-0.2 0,-0.2 0,-3.4 3,-6.1 6.7,-6.1 2,0 3.9,0.8 5.1,2.1 1.6,0.8 2.6,2.3 2.6,4.5 0,0.4 0.2,0.7 0.6,0.7 4.3,0.1 9.7,2.1 8.6,7.7 -0.4,0.2 -1.1,1.7 -1,2.1 0.7,0.8 1.7,1.1 2.2,1.1 6.3,0.4 12.1,7 5.5,13.7 -0.2,0.2 -0.2,0.5 -0.1,0.7 1,1.6 0.9,2.1 3,2.3 7.9,1 13,15.3 1.6,13.7 -3.2,-0.5 -3,-0.3 -6.2,0.3 -0.7,0.1 -0.7,1.3 0.1,1.3 3.7,-0.1 20.6,6.9 5.8,12.7 -0.4,0.2 -0.5,0.7 -0.2,1 1.5,1.9 9.9,9.2 1.5,11.5 -3.1,0.8 -6.7,-1.2 -9.7,-2.2 -3.6,-1.2 -6.4,0.2 -10.1,-0.4 -3.3,-0.5 -4.3,1.9 -4.7,4.7 -0.9,7.8 -2.1,15.5 5.6,20 0.7,0.4 0.5,-1.1 -0.2,-1.5 -6.3,-3.7 -5.3,-8.8 -4.5,-14.6 0.4,-2.7 0,-9.8 4.2,-7.7 0.7,0.3 7.6,0.2 11.6,1.6 2.6,0.9 5.2,1.6 8,1.5 3.9,-0.2 6.7,-4.6 4.2,-7.9 -1.5,-1.7 -3.6,-3.6 -3.6,-4.4 z"
           class="foreground" /></g></g></g></svg>